<?xml version="1.0" encoding="UTF-8" standalone="no"?>
<!-- Created with Inkscape (http://www.inkscape.org/) -->

<svg
   xmlns:dc="http://purl.org/dc/elements/1.1/"
   xmlns:cc="http://creativecommons.org/ns#"
   xmlns:rdf="http://www.w3.org/1999/02/22-rdf-syntax-ns#"
   xmlns:svg="http://www.w3.org/2000/svg"
   xmlns="http://www.w3.org/2000/svg"
   xmlns:sodipodi="http://sodipodi.sourceforge.net/DTD/sodipodi-0.dtd"
   xmlns:inkscape="http://www.inkscape.org/namespaces/inkscape"
   width="100"
   height="100"
   id="svg2"
   version="1.1"
   inkscape:version="0.48.4 r9939"
   sodipodi:docname="2p.svg">
  <defs
     id="defs4" />
  <sodipodi:namedview
     id="base"
     pagecolor="#ffffff"
     bordercolor="#666666"
     borderopacity="1.0"
     inkscape:pageopacity="0.0"
     inkscape:pageshadow="2"
     inkscape:zoom="5.6"
     inkscape:cx="53.279167"
     inkscape:cy="45.227213"
     inkscape:document-units="px"
     inkscape:current-layer="layer1"
     showgrid="false"
     showguides="true"
     inkscape:guide-bbox="true"
     inkscape:window-width="1363"
     inkscape:window-height="916"
     inkscape:window-x="2118"
     inkscape:window-y="36"
     inkscape:window-maximized="0">
    <sodipodi:guide
       orientation="1,0"
       position="50,50"
       id="guide3780" />
    <sodipodi:guide
       orientation="0,1"
       position="50,50"
       id="guide3782" />
  </sodipodi:namedview>
  <metadata
     id="metadata7">
    <rdf:RDF>
      <cc:Work
         rdf:about="">
        <dc:format>image/svg+xml</dc:format>
        <dc:type
           rdf:resource="http://purl.org/dc/dcmitype/StillImage" />
        <dc:title></dc:title>
      </cc:Work>
    </rdf:RDF>
  </metadata>
  <g
     inkscape:label="Layer 1"
     inkscape:groupmode="layer"
     id="layer1"
     transform="translate(0,-952.36217)">
    <g
       id="g3827"
       transform="translate(0.19642965,1.48211)">
      <g
         transform="translate(-18.035714,1.4285714)"
         id="g3822">
        <rect
           style="fill:#545656;fill-opacity:1;stroke:#000000;stroke-width:1;stroke-linecap:round;stroke-linejoin:miter;stroke-miterlimit:4;stroke-opacity:1;stroke-dasharray:none;stroke-dashoffset:0"
           id="rect3814"
           width="29.464285"
           height="51.25"
           x="63.30357"
           y="969.50507"
           rx="5"
           ry="5" />
        <rect
           style="fill:#c8c8c8;fill-opacity:1;stroke:#000000;stroke-width:1;stroke-linecap:round;stroke-linejoin:miter;stroke-miterlimit:4;stroke-opacity:1;stroke-dasharray:none;stroke-dashoffset:0"
           id="rect3816"
           width="23.571428"
           height="37.5"
           x="66.25"
           y="974.50507" />
        <path
           sodipodi:type="arc"
           style="fill:#c8c8c8;fill-opacity:1;stroke:#000000;stroke-width:0.75;stroke-linecap:round;stroke-linejoin:miter;stroke-miterlimit:4;stroke-opacity:1;stroke-dasharray:none;stroke-dashoffset:0"
           id="path3820"
           sodipodi:cx="75.178574"
           sodipodi:cy="78.75"
           sodipodi:rx="1.6071428"
           sodipodi:ry="1.6071428"
           d="m 76.785716,78.75 c 0,0.8876 -0.719542,1.607143 -1.607142,1.607143 -0.887601,0 -1.607143,-0.719543 -1.607143,-1.607143 0,-0.8876 0.719542,-1.607143 1.607143,-1.607143 0.8876,0 1.607142,0.719543 1.607142,1.607143 z"
           transform="matrix(1.3333333,0,0,1.3333333,-22.202383,910.93359)" />
      </g>
      <g
         transform="translate(-10.625,3.2142826)"
         id="g3784">
        <path
           sodipodi:type="arc"
           style="fill:#e9c6af;fill-opacity:1;stroke:#000000;stroke-width:1.32059801;stroke-linecap:round;stroke-linejoin:miter;stroke-miterlimit:4;stroke-opacity:1;stroke-dasharray:none;stroke-dashoffset:0"
           id="path3765"
           sodipodi:cx="38.30357"
           sodipodi:cy="34.19643"
           sodipodi:rx="14.196428"
           sodipodi:ry="14.196428"
           d="m 52.499998,34.19643 c 0,7.840471 -6.355957,14.196429 -14.196428,14.196429 -7.840471,0 -14.196429,-6.355958 -14.196429,-14.196429 0,-7.840471 6.355958,-14.196428 14.196429,-14.196428 7.840471,0 14.196428,6.355957 14.196428,14.196428 z"
           transform="matrix(0.75723272,0,0,0.75723272,20.995284,961.9675)" />
        <path
           style="fill:#ff0000;fill-opacity:1;stroke:#000000;stroke-width:1;stroke-linecap:round;stroke-linejoin:miter;stroke-miterlimit:4;stroke-opacity:1;stroke-dasharray:none;stroke-dashoffset:0"
           d="m 50,998.61216 c -8.008129,0 -14.5,6.49194 -14.5,14.50004 0,0.1705 0.02541,0.3309 0.03125,0.5 l -0.03125,0 0,14 14.5,0 14.5,0 0,-14 -0.03125,0 c 0.0058,-0.1691 0.03125,-0.3295 0.03125,-0.5 0,-8.0081 -6.491871,-14.50004 -14.5,-14.50004 z"
           id="path3769"
           inkscape:connector-curvature="0" />
      </g>
    </g>
  </g>
</svg>
